<svg width="11" height="10" viewBox="0 0 11 10" fill="none" xmlns="http://www.w3.org/2000/svg">
<path d="M2.33785 9.99893C2.41503 9.99922 2.49034 9.97579 2.55305 9.93197L5.50057 7.85102L8.44809 9.93197C8.51107 9.97645 8.58693 10.0003 8.66472 10C8.74251 9.99972 8.8182 9.97536 8.88084 9.93044C8.94348 9.88552 8.98982 9.82236 9.01317 9.7501C9.03652 9.67784 9.03567 9.60022 9.01074 9.52846L7.86116 6.21263L10.8405 4.22296C10.9051 4.17991 10.9538 4.11789 10.9795 4.04596C11.0053 3.97404 11.0068 3.89597 10.9837 3.82318C10.9607 3.75038 10.9143 3.68666 10.8515 3.64134C10.7886 3.59602 10.7125 3.57146 10.6343 3.57126H6.95863L5.84939 0.246958C5.82549 0.175187 5.77887 0.112631 5.7162 0.0682644C5.65353 0.0238976 5.57805 0 5.50057 0C5.42309 0 5.34761 0.0238976 5.28494 0.0682644C5.22228 0.112631 5.17565 0.175187 5.15176 0.246958L4.04251 3.57238H0.366873C0.288551 3.57234 0.212274 3.59673 0.149214 3.64196C0.086153 3.6872 0.0396233 3.75091 0.0164366 3.82376C-0.00675011 3.89661 -0.00537395 3.97478 0.0203629 4.04682C0.0461006 4.11885 0.0948467 4.18097 0.159463 4.22407L3.13999 6.21263L1.99109 9.52757C1.97248 9.58123 1.96724 9.63845 1.97582 9.69448C1.98439 9.7505 2.00653 9.80374 2.04041 9.84979C2.07429 9.89584 2.11893 9.93338 2.17065 9.95932C2.22236 9.98525 2.27968 9.99883 2.33785 9.99893Z" fill="#3B0505"/>
</svg>
